<svg id="Layer_1" data-name="Layer 1" xmlns="http://www.w3.org/2000/svg" viewBox="0 0 384.71 221.7"><defs><style>.cls-1{fill:#1e5ba7;}</style></defs><rect class="cls-1" x="37.46" y="120.11" width="15.6" height="15.6" transform="translate(103.7 5.46) rotate(45)"/><path class="cls-1" d="M56.13,82.71v15.6s-11.7,0-12.08,0a29.62,29.62,0,0,0-.19,59.19c.44,0,12.27,0,12.27,0v15.6H43.21a45.24,45.24,0,0,1-.15-90.39Z"/><polygon class="cls-1" points="56.13 48.44 56.13 63.87 0 49.87 0 34.44 56.13 48.44"/><path class="cls-1" d="M90.49,57V176.46A45.25,45.25,0,0,1,1.29,187.2l15.12-3.77a29.61,29.61,0,0,0,58.4-7V53.1Z"/><polygon class="cls-1" points="90.49 22.57 90.49 38 0 15.43 0 0 90.49 22.57"/><path class="cls-1" d="M142.9,100.67a18.9,18.9,0,0,1-7.4-5.73l6.83-8.2q4.33,5.85,9.87,5.85,7.53,0,7.52-8.81V58.49H141V48.62H172V83.09q0,9.8-4.86,14.7t-14.28,4.89A24.11,24.11,0,0,1,142.9,100.67Z"/><path class="cls-1" d="M224.41,60.92v40.85H213.18V96.91a15.74,15.74,0,0,1-5.62,4.07,17.81,17.81,0,0,1-7.07,1.4q-8,0-12.75-4.63T183,84V60.92h11.85V82.26q0,9.87,8.27,9.87A8.91,8.91,0,0,0,210,89.36q2.58-2.77,2.58-8.24V60.92Z"/><path class="cls-1" d="M272.52,64.87q4.67,4.56,4.67,13.52v23.38H265.34V80.21q0-4.86-2.12-7.25a7.8,7.8,0,0,0-6.16-2.4,9.41,9.41,0,0,0-7.13,2.78c-1.78,1.84-2.66,4.59-2.66,8.23v20.2H235.42V60.92h11.32V65.7a15.72,15.72,0,0,1,5.84-4,20.33,20.33,0,0,1,7.67-1.41Q267.84,60.31,272.52,64.87Z"/><path class="cls-1" d="M330,45.43v56.34H318.65v-4.7q-4.41,5.31-12.76,5.31a21.21,21.21,0,0,1-10.44-2.58,18.44,18.44,0,0,1-7.33-7.37,22.45,22.45,0,0,1-2.66-11.08,22.49,22.49,0,0,1,2.66-11.09,18.41,18.41,0,0,1,7.33-7.36,21.1,21.1,0,0,1,10.44-2.59q7.82,0,12.23,4.94V45.43ZM315.38,89.59a11.37,11.37,0,0,0,3-8.24,11.36,11.36,0,0,0-3-8.24A9.89,9.89,0,0,0,307.94,70a10,10,0,0,0-7.52,3.08,11.4,11.4,0,0,0-3,8.24,11.42,11.42,0,0,0,3,8.24,10,10,0,0,0,7.52,3.07A9.88,9.88,0,0,0,315.38,89.59Z"/><path class="cls-1" d="M340.9,60.92h11.84v40.85H340.9Z"/><path class="cls-1" d="M148.59,179.61a23.87,23.87,0,0,1-8.77-4.82l2.81-5.93a23.19,23.19,0,0,0,7.79,4.45,28.52,28.52,0,0,0,9.75,1.71q6.62,0,9.88-2.25a6.9,6.9,0,0,0,3.26-6,5.91,5.91,0,0,0-1.78-4.44,12,12,0,0,0-4.41-2.62c-1.74-.6-4.21-1.29-7.4-2.05a76.07,76.07,0,0,1-9.68-2.88,16,16,0,0,1-6.31-4.44,11.91,11.91,0,0,1-2.62-8.09,13.7,13.7,0,0,1,2.24-7.67,15.43,15.43,0,0,1,6.8-5.47,27.69,27.69,0,0,1,11.31-2.05,35.86,35.86,0,0,1,9.27,1.22,24.61,24.61,0,0,1,7.82,3.49L176,137.88a27.44,27.44,0,0,0-7.13-3.22,26.52,26.52,0,0,0-7.45-1.1q-6.45,0-9.68,2.35a7.2,7.2,0,0,0-3.22,6.07,5.8,5.8,0,0,0,1.82,4.45,12.52,12.52,0,0,0,4.52,2.65,68.69,68.69,0,0,0,7.32,2,74.43,74.43,0,0,1,9.65,2.88,16.11,16.11,0,0,1,6.26,4.41,11.57,11.57,0,0,1,2.62,8,13.56,13.56,0,0,1-2.28,7.63,15.27,15.27,0,0,1-6.91,5.47,28.57,28.57,0,0,1-11.39,2A36.42,36.42,0,0,1,148.59,179.61Z"/><path class="cls-1" d="M213.4,178.51a10.86,10.86,0,0,1-4,2.09,16.53,16.53,0,0,1-4.86.72q-6.08,0-9.41-3.27t-3.34-9.34V146.62H185v-6h6.84v-8.81h7.29v8.81h11.54v6H199.13v21.79a7,7,0,0,0,1.63,5,6.06,6.06,0,0,0,4.67,1.75,8.83,8.83,0,0,0,5.7-1.9Z"/><path class="cls-1" d="M259.72,140.62v40.24h-6.91v-6.07a14.68,14.68,0,0,1-5.81,4.82,18.08,18.08,0,0,1-7.86,1.71q-8,0-12.68-4.44t-4.63-13.1V140.62h7.29v22.32q0,5.85,2.81,8.85c1.87,2,4.56,3,8,3a12,12,0,0,0,9.11-3.5q3.34-3.48,3.34-9.87v-20.8Z"/><path class="cls-1" d="M311.58,124.52v56.34h-7v-6.38a15.73,15.73,0,0,1-6.15,5.09,19,19,0,0,1-8.2,1.75,21.17,21.17,0,0,1-10.48-2.58,18.41,18.41,0,0,1-7.25-7.26,23.26,23.26,0,0,1,0-21.45,18.55,18.55,0,0,1,7.25-7.21,21.17,21.17,0,0,1,10.48-2.58,19.26,19.26,0,0,1,8,1.63,15.63,15.63,0,0,1,6.08,4.82V124.52Zm-13.82,48.63a12.35,12.35,0,0,0,4.86-5,16.52,16.52,0,0,0,0-14.8,12.27,12.27,0,0,0-4.86-5,14.65,14.65,0,0,0-13.85,0,12.66,12.66,0,0,0-4.86,5,16.19,16.19,0,0,0,0,14.8,12.74,12.74,0,0,0,4.86,5,14.29,14.29,0,0,0,13.85,0Z"/><path class="cls-1" d="M325.4,140.62h7.29v40.24H325.4Z"/><path class="cls-1" d="M353,178.66a19.24,19.24,0,0,1-7.48-7.33,22.19,22.19,0,0,1,0-21.18,19,19,0,0,1,7.48-7.29,22.07,22.07,0,0,1,10.79-2.62,21.84,21.84,0,0,1,10.74,2.62,19.1,19.1,0,0,1,7.44,7.29,22.12,22.12,0,0,1,0,21.18,19.34,19.34,0,0,1-7.44,7.33,21.65,21.65,0,0,1-10.74,2.66A21.87,21.87,0,0,1,353,178.66Zm17.73-5.51a12.44,12.44,0,0,0,4.82-5,16.52,16.52,0,0,0,0-14.8,12.37,12.37,0,0,0-4.82-5,14.73,14.73,0,0,0-13.89,0,12.66,12.66,0,0,0-4.86,5,16.19,16.19,0,0,0,0,14.8,12.74,12.74,0,0,0,4.86,5,14.37,14.37,0,0,0,13.89,0Z"/><rect class="cls-1" x="341.06" y="42.86" width="11.52" height="11.52" transform="translate(67.2 259.48) rotate(-45)"/><rect class="cls-1" x="325.59" y="124.83" width="6.92" height="6.92" transform="translate(5.67 270.27) rotate(-45)"/></svg>