<svg id="Layer_1" data-name="Layer 1" xmlns="http://www.w3.org/2000/svg" viewBox="0 0 409.17 220.95"><defs><style>.cls-1{fill:#1e5ba7;}</style></defs><path class="cls-1" d="M270.36,69.46a21.07,21.07,0,0,0-18.2-10.41H237.24V70.43h14.87A9.57,9.57,0,0,1,261.67,80v9.56H213.82v11.38h59.39V80A20.87,20.87,0,0,0,270.36,69.46Z"/><path class="cls-1" d="M128,59.1a21.08,21.08,0,0,0-10.51,2.79,19.93,19.93,0,0,0-2.69,1.83,20.77,20.77,0,0,0-5,5.79A19.34,19.34,0,0,0,108.53,72l-.23.39,0,0a21.21,21.21,0,0,0-1.3,5.23c0,.28-.06.56-.08.85l0,.52c0,.34,0,.68,0,1V89.6H85.46a9.57,9.57,0,0,1-9.58-9.55v-21H64.34v21a20.77,20.77,0,0,0,2.85,10.52,21.16,21.16,0,0,0,7.72,7.63h0A21.17,21.17,0,0,0,85.42,101h33V80a9.49,9.49,0,0,1,3.28-7.18,8.36,8.36,0,0,1,.73-.57A9.54,9.54,0,0,1,128,70.48l14.84,0V59.05Z"/><path class="cls-1" d="M204.8,59V80a9.57,9.57,0,0,1-9.57,9.55l-21.58,0v11.38h16l6.58,0,.64,0v0a21.09,21.09,0,0,0,16.6-10.35c.19-.32.37-.65.54-1A20.52,20.52,0,0,0,216.35,80V59Z"/><path class="cls-1" d="M164.29,59V80a9.57,9.57,0,0,1-9.58,9.55l-21.58,0v11.38h16l6.58,0,.65,0v0A21.07,21.07,0,0,0,173,90.5c.19-.33.37-.65.55-1A20.64,20.64,0,0,0,175.83,80V59Z"/><polygon class="cls-1" points="211.87 36.97 203.71 45.09 211.87 53.21 220.03 45.09 211.87 36.97"/><polygon class="cls-1" points="246.33 106.63 238.17 114.75 246.33 122.87 254.5 114.75 246.33 106.63"/><polygon class="cls-1" points="99.41 106.63 91.25 114.75 99.41 122.87 107.57 114.75 99.41 106.63"/><polygon class="cls-1" points="83.09 106.63 74.93 114.75 83.09 122.87 91.25 114.75 83.09 106.63"/><path class="cls-1" d="M194.41,180.7v-6.9H206a14.58,14.58,0,0,0,14.6-14.53V143.21h6.93v16.06A21.5,21.5,0,0,1,206,180.7Z"/><path class="cls-1" d="M244.67,180.7v-6.9h7a14.58,14.58,0,0,0,14.6-14.53V137.85h6.94v21.42a21.51,21.51,0,0,1-21.54,21.43Z"/><path class="cls-1" d="M85.41,180.7v-6.9h7A14.58,14.58,0,0,0,107,159.27V137.85h6.93v21.42A21.5,21.5,0,0,1,92.41,180.7Z"/><path class="cls-1" d="M221.79,180.7v-6.9h7a14.57,14.57,0,0,0,14.59-14.53V143.21h6.94v16.06A21.5,21.5,0,0,1,228.8,180.7Z"/><path class="cls-1" d="M146,196v-6.9h.78a14.56,14.56,0,0,0,14.5-12.82l.15-1.28-1,.82a21.39,21.39,0,1,1,7.87-16.54V173.8h10.08A14.58,14.58,0,0,0,193,159.27V143.21h6.93v16.06a21.5,21.5,0,0,1-21.53,21.43h-11l-.12.36A21.43,21.43,0,0,1,146.8,196Zm.78-51.24a14.53,14.53,0,1,0,14.6,14.52A14.58,14.58,0,0,0,146.8,144.75Z"/><path class="cls-1" d="M20.75,196v-6.9h.78A14.56,14.56,0,0,0,36,176.27l.15-1.28-1,.82a21.39,21.39,0,1,1,7.87-16.54V173.8H53.14a14.58,14.58,0,0,0,14.6-14.53V137.85h6.93v21.42A21.5,21.5,0,0,1,53.14,180.7h-11l-.11.36A21.43,21.43,0,0,1,21.53,196Zm.78-51.24a14.53,14.53,0,1,0,14.6,14.52A14.58,14.58,0,0,0,21.53,144.75Z"/><polygon class="cls-1" points="186.53 127.86 191.44 122.98 196.34 127.86 191.44 132.73 186.53 127.86"/><polygon class="cls-1" points="197.81 127.86 202.71 122.98 207.61 127.86 202.71 132.73 197.81 127.86"/><polygon class="cls-1" points="52.84 194.52 57.74 189.64 62.65 194.52 57.74 199.4 52.84 194.52"/><polygon class="cls-1" points="64.11 194.52 69.02 189.64 73.92 194.52 69.02 199.4 64.11 194.52"/><polygon class="cls-1" points="363.86 138.46 352.82 127.47 363.86 116.48 374.91 127.47 363.86 138.46"/><path class="cls-1" d="M374.75,82.43V98s-11.72,0-12.1,0a29.52,29.52,0,0,0-.19,59h12.29v15.54H361.81a45.08,45.08,0,0,1-.15-90.08Z"/><path class="cls-1" d="M409.17,56.82v119a45.34,45.34,0,0,1-89.35,10.71L335,182.81a29.68,29.68,0,0,0,58.51-6.95V52.92Z"/><polygon class="cls-1" points="409.17 22.49 409.17 37.87 318.53 15.38 318.53 0 409.17 22.49"/><polygon class="cls-1" points="374.75 48.28 374.75 63.66 318.53 49.7 318.53 34.33 374.75 48.28"/></svg>