<svg xmlns="http://www.w3.org/2000/svg" viewBox="0 0 250 144.07"><defs><style>.be7c4fd1-79ef-4ca3-a9c3-476d8d43c1fa{fill:#1e5ba7;}</style></defs><g id="fca54480-986a-474c-b275-8e7c85cb91e8" data-name="Layer 2"><g id="be072579-fcbf-4428-b1b3-77bd21381fc2" data-name="Layer 1"><rect class="be7c4fd1-79ef-4ca3-a9c3-476d8d43c1fa" x="24.34" y="78.05" width="10.14" height="10.14" transform="translate(67.39 3.55) rotate(45)"/><path class="be7c4fd1-79ef-4ca3-a9c3-476d8d43c1fa" d="M36.48,53.75V63.88s-7.61,0-7.85,0a19.25,19.25,0,0,0-.13,38.47c.29,0,8,0,8,0v10.14h-8.4A29.4,29.4,0,0,1,28,53.75Z"/><polygon class="be7c4fd1-79ef-4ca3-a9c3-476d8d43c1fa" points="36.48 31.48 36.48 41.51 0 32.41 0 22.38 36.48 31.48"/><path class="be7c4fd1-79ef-4ca3-a9c3-476d8d43c1fa" d="M58.81,37.05v77.62a29.4,29.4,0,0,1-22.33,28.54A29.42,29.42,0,0,1,.84,121.65l9.82-2.45a19.25,19.25,0,0,0,38-4.53V34.51Z"/><polygon class="be7c4fd1-79ef-4ca3-a9c3-476d8d43c1fa" points="58.81 14.67 58.81 24.69 0 10.03 0 0 58.81 14.67"/><path class="be7c4fd1-79ef-4ca3-a9c3-476d8d43c1fa" d="M92.86,65.42a12.35,12.35,0,0,1-4.81-3.72l4.44-5.33q2.82,3.8,6.42,3.8c3.26,0,4.88-1.91,4.88-5.73V38H91.65V31.6h20.09V54q0,6.36-3.16,9.55T99.3,66.73A15.71,15.71,0,0,1,92.86,65.42Z"/><path class="be7c4fd1-79ef-4ca3-a9c3-476d8d43c1fa" d="M145.83,39.59V66.14h-7.3V63a10.28,10.28,0,0,1-3.65,2.64,11.43,11.43,0,0,1-4.59.91,11.29,11.29,0,0,1-8.29-3q-3.06-3-3.06-8.93v-15h7.7V53.46q0,6.4,5.38,6.41a5.79,5.79,0,0,0,4.44-1.8,7.59,7.59,0,0,0,1.68-5.35V39.59Z"/><path class="be7c4fd1-79ef-4ca3-a9c3-476d8d43c1fa" d="M177.09,42.16q3,3,3,8.78v15.2h-7.7v-14a6.94,6.94,0,0,0-1.38-4.71,5,5,0,0,0-4-1.55,6.15,6.15,0,0,0-4.64,1.8A7.45,7.45,0,0,0,160.69,53V66.14H153V39.59h7.35V42.7a10.24,10.24,0,0,1,3.8-2.59,13.18,13.18,0,0,1,5-.92A10.9,10.9,0,0,1,177.09,42.16Z"/><path class="be7c4fd1-79ef-4ca3-a9c3-476d8d43c1fa" d="M214.42,29.52V66.14h-7.35V63.08q-2.87,3.45-8.29,3.45A13.74,13.74,0,0,1,192,64.85a12,12,0,0,1-4.77-4.78,14.65,14.65,0,0,1-1.72-7.21,14.58,14.58,0,0,1,1.72-7.2A12.08,12.08,0,0,1,192,40.87a13.74,13.74,0,0,1,6.78-1.68,10.11,10.11,0,0,1,7.95,3.21V29.52ZM205,58.22a7.43,7.43,0,0,0,1.92-5.36A7.4,7.4,0,0,0,205,47.51a6.9,6.9,0,0,0-9.72,0,7.41,7.41,0,0,0-1.93,5.35,7.43,7.43,0,0,0,1.93,5.36,6.9,6.9,0,0,0,9.72,0Z"/><path class="be7c4fd1-79ef-4ca3-a9c3-476d8d43c1fa" d="M221.53,39.59h7.7V66.14h-7.7Z"/><path class="be7c4fd1-79ef-4ca3-a9c3-476d8d43c1fa" d="M96.56,116.72a15.69,15.69,0,0,1-5.7-3.13l1.83-3.85a15.09,15.09,0,0,0,5.06,2.88,18.56,18.56,0,0,0,6.34,1.11q4.29,0,6.41-1.45a4.48,4.48,0,0,0,2.13-3.88,3.82,3.82,0,0,0-1.16-2.88,7.89,7.89,0,0,0-2.87-1.71c-1.13-.39-2.74-.83-4.81-1.33a49.82,49.82,0,0,1-6.29-1.87,10.47,10.47,0,0,1-4.1-2.89,7.73,7.73,0,0,1-1.7-5.25,8.9,8.9,0,0,1,1.46-5,10,10,0,0,1,4.42-3.55,17.86,17.86,0,0,1,7.35-1.33,23.14,23.14,0,0,1,6,.79A15.79,15.79,0,0,1,116,85.66L114.4,89.6a17.62,17.62,0,0,0-4.64-2.09,17.14,17.14,0,0,0-4.83-.72q-4.2,0-6.29,1.53a4.69,4.69,0,0,0-2.1,4,3.76,3.76,0,0,0,1.18,2.88,8.21,8.21,0,0,0,2.94,1.73,45.82,45.82,0,0,0,4.76,1.31,48.2,48.2,0,0,1,6.27,1.88,10.45,10.45,0,0,1,4.07,2.86,7.55,7.55,0,0,1,1.7,5.18,8.8,8.8,0,0,1-1.48,5,9.94,9.94,0,0,1-4.49,3.55,18.6,18.6,0,0,1-7.4,1.31A23.84,23.84,0,0,1,96.56,116.72Z"/><path class="be7c4fd1-79ef-4ca3-a9c3-476d8d43c1fa" d="M138.68,116a6.93,6.93,0,0,1-2.57,1.36,10.79,10.79,0,0,1-3.16.47,8.37,8.37,0,0,1-6.11-2.12,8.11,8.11,0,0,1-2.18-6.07V95.28h-4.44v-3.9h4.44V85.66h4.74v5.72h7.5v3.9h-7.5v14.16a4.65,4.65,0,0,0,1.06,3.26,4,4,0,0,0,3,1.13,5.73,5.73,0,0,0,3.7-1.23Z"/><path class="be7c4fd1-79ef-4ca3-a9c3-476d8d43c1fa" d="M168.78,91.38v26.15h-4.49v-3.94a9.59,9.59,0,0,1-3.78,3.13,11.75,11.75,0,0,1-5.1,1.11q-5.24,0-8.24-2.89t-3-8.51V91.38h4.73v14.51a8.12,8.12,0,0,0,1.83,5.75,6.82,6.82,0,0,0,5.23,2,7.82,7.82,0,0,0,5.92-2.27A8.93,8.93,0,0,0,164,104.9V91.38Z"/><path class="be7c4fd1-79ef-4ca3-a9c3-476d8d43c1fa" d="M202.48,80.92v36.61h-4.54v-4.14a10.14,10.14,0,0,1-4,3.3,12.37,12.37,0,0,1-5.33,1.14,13.7,13.7,0,0,1-6.81-1.68,12.08,12.08,0,0,1-4.72-4.71,15.14,15.14,0,0,1,0-13.94,12.09,12.09,0,0,1,4.72-4.69,13.7,13.7,0,0,1,6.81-1.68,12.66,12.66,0,0,1,5.18,1.06,10.17,10.17,0,0,1,3.95,3.14V80.92Zm-9,31.6a8.11,8.11,0,0,0,3.16-3.25,10.8,10.8,0,0,0,0-9.62,8,8,0,0,0-3.16-3.24,9.53,9.53,0,0,0-9,0,8.15,8.15,0,0,0-3.16,3.24,10.55,10.55,0,0,0,0,9.62,8.24,8.24,0,0,0,3.16,3.25,9.31,9.31,0,0,0,9,0Z"/><path class="be7c4fd1-79ef-4ca3-a9c3-476d8d43c1fa" d="M211.46,91.38h4.74v26.15h-4.74Z"/><path class="be7c4fd1-79ef-4ca3-a9c3-476d8d43c1fa" d="M229.42,116.1a12.56,12.56,0,0,1-4.86-4.76,14.42,14.42,0,0,1,0-13.77,12.35,12.35,0,0,1,4.86-4.73,14.32,14.32,0,0,1,7-1.71,14.13,14.13,0,0,1,7,1.71,12.37,12.37,0,0,1,4.84,4.73,14.42,14.42,0,0,1,0,13.77,12.58,12.58,0,0,1-4.84,4.76,14,14,0,0,1-7,1.73A14.23,14.23,0,0,1,229.42,116.1ZM241,112.52a8.17,8.17,0,0,0,3.13-3.25,10.8,10.8,0,0,0,0-9.62A8.08,8.08,0,0,0,241,96.41a9.59,9.59,0,0,0-9,0,8.15,8.15,0,0,0-3.16,3.24,10.55,10.55,0,0,0,0,9.62,8.24,8.24,0,0,0,3.16,3.25,9.37,9.37,0,0,0,9,0Z"/><rect class="be7c4fd1-79ef-4ca3-a9c3-476d8d43c1fa" x="221.63" y="27.85" width="7.49" height="7.49" transform="translate(43.67 168.62) rotate(-45)"/><rect class="be7c4fd1-79ef-4ca3-a9c3-476d8d43c1fa" x="211.58" y="81.12" width="4.5" height="4.5" transform="translate(3.69 175.63) rotate(-45)"/></g></g></svg>