<svg id="a3e80d0a-4425-495e-9654-b7e715fbe767" data-name="Layer 1" xmlns="http://www.w3.org/2000/svg" viewBox="0 0 884.76 114.38"><defs><style>.f9e5219f-29cb-4c2f-9870-90fd26bcc4ad{fill:#fff;}</style></defs><path class="f9e5219f-29cb-4c2f-9870-90fd26bcc4ad" d="M13.34,111.3A34.07,34.07,0,0,1,0,101L12.32,86.19q7.8,10.55,17.79,10.54,13.55,0,13.55-15.88V35.28H10V17.49h55.7V79.62q0,17.66-8.76,26.48T31.2,114.93A43.37,43.37,0,0,1,13.34,111.3Z"/><path class="f9e5219f-29cb-4c2f-9870-90fd26bcc4ad" d="M160.25,39.66v73.63H140v-8.76a28.43,28.43,0,0,1-10.13,7.32,31.79,31.79,0,0,1-12.73,2.53q-14.51,0-23-8.35T85.67,81.27V39.66H107V78.12q0,17.79,14.91,17.79,7.66,0,12.32-5t4.65-14.85V39.66Z"/><path class="f9e5219f-29cb-4c2f-9870-90fd26bcc4ad" d="M247,46.78q8.4,8.2,8.41,24.36v42.15H234V74.42q0-8.74-3.83-13.07T219.09,57q-8.07,0-12.86,5t-4.79,14.84v36.41H180.09V39.66h20.39v8.63A28.25,28.25,0,0,1,211,41.1a36.67,36.67,0,0,1,13.82-2.53Q238.52,38.57,247,46.78Z"/><path class="f9e5219f-29cb-4c2f-9870-90fd26bcc4ad" d="M350.47,11.75V113.29H330.08V104.8q-7.93,9.58-23,9.58a38.24,38.24,0,0,1-18.82-4.65,33.31,33.31,0,0,1-13.2-13.27,40.4,40.4,0,0,1-4.79-20,40.41,40.41,0,0,1,4.79-20,33.31,33.31,0,0,1,13.2-13.27,38.24,38.24,0,0,1,18.82-4.65q14.09,0,22,8.89V11.75ZM324.2,91.32q5.34-5.53,5.33-14.84T324.2,61.63a19.15,19.15,0,0,0-27,0q-5.34,5.53-5.34,14.85t5.34,14.84a19.17,19.17,0,0,0,27,0Z"/><path class="f9e5219f-29cb-4c2f-9870-90fd26bcc4ad" d="M370.17,39.66h21.35v73.63H370.17Z"/><path class="f9e5219f-29cb-4c2f-9870-90fd26bcc4ad" d="M461.65,111q-10-3.36-15.8-8.69l5.06-10.68a41.84,41.84,0,0,0,14,8,51.39,51.39,0,0,0,17.59,3.08q11.89,0,17.79-4A12.44,12.44,0,0,0,506.2,88,10.58,10.58,0,0,0,503,80a21.61,21.61,0,0,0-7.93-4.72q-4.73-1.63-13.34-3.69a137.17,137.17,0,0,1-17.45-5.2,28.75,28.75,0,0,1-11.36-8q-4.72-5.4-4.72-14.57a24.64,24.64,0,0,1,4-13.82q4-6.16,12.25-9.86t20.39-3.69a64.56,64.56,0,0,1,16.7,2.19,44.33,44.33,0,0,1,14.09,6.29l-4.51,11A49.73,49.73,0,0,0,498.26,30a47.74,47.74,0,0,0-13.41-2q-11.62,0-17.45,4.24a13,13,0,0,0-5.81,10.95,10.49,10.49,0,0,0,3.28,8A22.89,22.89,0,0,0,473,56a128.86,128.86,0,0,0,13.21,3.62,135.28,135.28,0,0,1,17.38,5.2,29.33,29.33,0,0,1,11.29,7.94q4.73,5.34,4.72,14.37a24.49,24.49,0,0,1-4.1,13.75q-4.11,6.24-12.46,9.86t-20.52,3.62A65.78,65.78,0,0,1,461.65,111Z"/><path class="f9e5219f-29cb-4c2f-9870-90fd26bcc4ad" d="M578.45,109a19.45,19.45,0,0,1-7.11,3.77,30,30,0,0,1-8.76,1.3q-11,0-17-5.89t-6-16.83V51.57H527.27V40.76h12.32V24.88h13.14V40.76h20.8V51.57h-20.8V90.84q0,5.89,2.94,9c2,2.1,4.77,3.14,8.42,3.14a15.84,15.84,0,0,0,10.26-3.42Z"/><path class="f9e5219f-29cb-4c2f-9870-90fd26bcc4ad" d="M661.94,40.76v72.53H649.48v-11A26.37,26.37,0,0,1,639,111a32.67,32.67,0,0,1-14.16,3.08q-14.51,0-22.86-8t-8.35-23.6V40.76h13.14V81q0,10.55,5.07,15.94t14.5,5.41q10.41,0,16.43-6.3t6-17.79V40.76Z"/><path class="f9e5219f-29cb-4c2f-9870-90fd26bcc4ad" d="M755.4,11.75V113.29H742.81v-11.5A28.48,28.48,0,0,1,731.73,111,34.33,34.33,0,0,1,717,114.11a38.16,38.16,0,0,1-18.89-4.65A33.45,33.45,0,0,1,685,96.39,39,39,0,0,1,680.27,77,38.56,38.56,0,0,1,685,57.73a33.47,33.47,0,0,1,13.07-13A38.17,38.17,0,0,1,717,40.07a34.62,34.62,0,0,1,14.37,3,28,28,0,0,1,10.95,8.68V11.75ZM730.5,99.4a22.64,22.64,0,0,0,8.75-9A27.6,27.6,0,0,0,742.4,77a27.56,27.56,0,0,0-3.15-13.34,22,22,0,0,0-8.75-9,26.34,26.34,0,0,0-25,0,22.69,22.69,0,0,0-8.76,9A27.15,27.15,0,0,0,693.55,77a27.18,27.18,0,0,0,3.21,13.35,23.34,23.34,0,0,0,8.76,9,25.9,25.9,0,0,0,25,0Z"/><rect class="f9e5219f-29cb-4c2f-9870-90fd26bcc4ad" x="780.31" y="40.76" width="13.14" height="72.53"/><path class="f9e5219f-29cb-4c2f-9870-90fd26bcc4ad" d="M830.12,109.32a34.65,34.65,0,0,1-13.48-13.21A37.46,37.46,0,0,1,811.78,77a37.49,37.49,0,0,1,4.86-19.09,34.28,34.28,0,0,1,13.48-13.14,42.23,42.23,0,0,1,38.8,0,34.43,34.43,0,0,1,13.41,13.14A37.49,37.49,0,0,1,887.19,77a37.46,37.46,0,0,1-4.86,19.09,34.81,34.81,0,0,1-13.41,13.21,41.68,41.68,0,0,1-38.8,0Zm32-9.92a22.73,22.73,0,0,0,8.68-9A27.6,27.6,0,0,0,873.91,77a27.56,27.56,0,0,0-3.15-13.34,22.11,22.11,0,0,0-8.68-9,26.48,26.48,0,0,0-25.05,0,22.69,22.69,0,0,0-8.76,9A27.15,27.15,0,0,0,825.06,77a27.18,27.18,0,0,0,3.21,13.35,23.34,23.34,0,0,0,8.76,9,26,26,0,0,0,25.05,0Z"/><rect class="f9e5219f-29cb-4c2f-9870-90fd26bcc4ad" x="370.47" y="6.01" width="20.77" height="20.77" transform="translate(99.95 274.1) rotate(-45)"/><rect class="f9e5219f-29cb-4c2f-9870-90fd26bcc4ad" x="780.64" y="11.36" width="12.48" height="12.48" transform="translate(218.06 561.6) rotate(-45)"/></svg>