<svg id="Layer_1" data-name="Layer 1" xmlns="http://www.w3.org/2000/svg" viewBox="0 0 90 221.7"><defs><style>.cls-1{fill:#1e5ba7;}</style></defs><polygon class="cls-1" points="45.01 138.93 34.05 127.91 45.01 116.88 55.98 127.91 45.01 138.93"/><path class="cls-1" d="M55.83,82.71v15.6s-11.65,0-12,0a29.63,29.63,0,0,0-.19,59.19c.44,0,12.21,0,12.21,0v15.6H43a44.75,44.75,0,0,1-32-15.6A45.26,45.26,0,0,1,42.83,82.71Z"/><path class="cls-1" d="M90,57V176.46A45.22,45.22,0,0,1,74.41,210.7a44.81,44.81,0,0,1-58.92-.09A45.18,45.18,0,0,1,1.28,187.2l15-3.77A29.48,29.48,0,0,0,45,206.08,29.18,29.18,0,0,0,55.83,204a29.64,29.64,0,0,0,18.58-27.54V53.1Z"/><polygon class="cls-1" points="90 22.57 90 38 0 15.43 0 0 90 22.57"/><polygon class="cls-1" points="55.82 48.44 55.82 63.87 0 49.87 0 34.44 55.82 48.44"/></svg>